<svg width="20" height="20" viewBox="0 0 20 20" fill="none" xmlns="http://www.w3.org/2000/svg">
<g clip-path="url(#clip0_501_1044)">
<path d="M7.90855 19.2747C6.81043 19.2747 5.91699 18.3812 5.91699 17.2831C5.91699 16.185 6.81043 15.2919 7.90855 15.2919C9.00668 15.2919 9.90012 16.185 9.90012 17.2831C9.90012 18.3812 9.00668 19.2747 7.90855 19.2747ZM7.90855 16.5419C7.4998 16.5419 7.16699 16.8744 7.16699 17.2831C7.16699 17.6922 7.49949 18.0247 7.90855 18.0247C8.31762 18.0247 8.65012 17.6922 8.65012 17.2831C8.65012 16.8744 8.31762 16.5419 7.90855 16.5419Z" fill="#24201F"/>
<path d="M14.8321 19.2747C13.7339 19.2747 12.8408 18.3812 12.8408 17.2831C12.8408 16.185 13.7339 15.2919 14.8321 15.2919C15.9302 15.2919 16.8236 16.185 16.8236 17.2831C16.8236 18.3812 15.9299 19.2747 14.8321 19.2747ZM14.8321 16.5419C14.4233 16.5419 14.0908 16.8744 14.0908 17.2831C14.0908 17.6922 14.4233 18.0247 14.8321 18.0247C15.2411 18.0247 15.5736 17.6922 15.5736 17.2831C15.5736 16.8744 15.2408 16.5419 14.8321 16.5419Z" fill="#24201F"/>
<path d="M16.2901 13.7482H6.47168C5.51637 13.7482 4.70043 13.0978 4.4873 12.1666L2.44949 3.26753C2.42262 3.15003 2.34137 3.0494 2.23199 2.99878L0.541679 2.21534C0.150429 2.03409 -0.0198839 1.56972 0.161366 1.17815C0.342616 0.786903 0.807304 0.616591 1.19855 0.797841L2.88887 1.58128C3.43355 1.83347 3.83887 2.33347 3.97262 2.91878L6.01043 11.8185C6.0598 12.0347 6.24949 12.186 6.47168 12.186H16.2901C16.5114 12.186 16.7007 12.0357 16.7514 11.82L18.3357 5.00347C18.3811 4.80972 18.2986 4.66878 18.2457 4.60222C18.1926 4.53534 18.0739 4.42347 17.8751 4.42347H6.31262C5.88105 4.42347 5.53137 4.07378 5.53137 3.64222C5.53137 3.21065 5.88105 2.86097 6.31262 2.86097H17.8751C18.4998 2.86097 19.0804 3.14128 19.4692 3.63034C19.8579 4.1194 19.9992 4.74878 19.8579 5.35722L18.2732 12.1741C18.0573 13.1007 17.242 13.7482 16.2901 13.7482Z" fill="#24201F"/>
</g>
<defs>
<clipPath id="clip0_501_1044">
<rect width="20" height="20" fill="white"/>
</clipPath>
</defs>
</svg>
