<svg width="32" height="32" viewBox="0 0 32 32" fill="none" xmlns="http://www.w3.org/2000/svg">
<rect width="32" height="32" rx="8" fill="#FDE0C8"/>
<path d="M17.5213 26.6376C17.7327 27.1296 17.3089 27.6349 16.8936 27.2968C15.7322 26.3512 14.9652 24.7522 14.9609 22.9362C14.9609 22.7038 15.1801 22.5278 15.4124 22.5278H16.3645C16.7151 22.5278 16.9788 22.8456 16.9519 23.1952C16.9375 23.3826 16.931 23.5706 16.9326 23.7587C16.9301 24.7542 17.1327 25.7334 17.5213 26.6376Z" fill="#24201F"/>
<path d="M21.248 16.0007C21.2344 15.3253 21.0877 14.6592 20.8164 14.0405C20.5451 13.4218 20.1544 12.8627 19.6668 12.3951C19.1792 11.9275 18.6042 11.5607 17.9747 11.3156C17.3451 11.0704 16.6735 10.9518 15.998 10.9666C14.6344 10.9384 13.3154 11.4529 12.3309 12.3969C11.3465 13.3408 10.7771 14.6371 10.748 16.0007C10.7771 17.3648 11.3463 18.6617 12.3306 19.6066C13.3149 20.5515 14.6339 21.0673 15.998 21.0407C16.6737 21.0546 17.3455 20.9353 17.9751 20.6895C18.6047 20.4438 19.1796 20.0764 19.6672 19.6083C20.1547 19.1403 20.5453 18.5808 20.8165 17.9618C21.0878 17.3428 21.2344 16.6764 21.248 16.0007Z" fill="#24201F"/>
<path d="M15.0534 8.8261C15.0259 9.17245 15.2889 9.48456 15.6363 9.48456H16.5984C16.8249 9.48456 17.0436 9.30274 17.0436 9.07623C17.0436 7.25732 16.2721 5.65304 15.1086 4.70635C14.6939 4.36895 14.2707 4.87187 14.4817 5.36305C14.8727 6.27298 15.0777 7.25796 15.0777 8.25956C15.0765 8.44871 15.0684 8.63768 15.0534 8.8261Z" fill="#24201F"/>
<path d="M10.6965 10.2776C10.8068 10.428 10.9108 10.5829 11.0083 10.7417C11.1921 11.041 11.5934 11.1421 11.8767 10.9344L12.6381 10.3762C12.8301 10.2354 12.8942 9.97367 12.7615 9.77596C11.6907 8.30995 10.1308 7.46922 8.63877 7.38453C8.10413 7.35419 8.05737 8.01112 8.51757 8.28494C9.3674 8.7906 10.1104 9.46698 10.6965 10.2776Z" fill="#24201F"/>
<path d="M8.345 14.4838C8.52488 14.5426 8.70241 14.6082 8.87722 14.6804C9.19972 14.8135 9.57951 14.6583 9.68563 14.3259L9.97681 13.4139C10.0468 13.1946 9.94691 12.9319 9.7275 12.8621C7.99225 12.3036 6.22273 12.5428 4.96554 13.3588C4.51784 13.6494 4.86611 14.2044 5.39751 14.1546C6.38656 14.0618 7.38998 14.1715 8.345 14.4838Z" fill="#24201F"/>
<path d="M9.60583 17.4433C9.53368 17.2256 9.29648 17.0711 9.08089 17.1495C7.35497 17.7149 6.07206 18.937 5.53015 20.3305C5.33609 20.8296 5.94668 21.0774 6.34961 20.7247C7.09307 20.0741 7.96584 19.5779 8.91756 19.2728C9.09482 19.214 9.27434 19.1626 9.45567 19.1188C9.79731 19.0361 10.0173 18.6851 9.90672 18.3514L9.60583 17.4433Z" fill="#24201F"/>
<path d="M11.0754 20.9937C10.0116 22.466 9.69274 24.2147 10.0759 25.6622C10.2128 26.1793 10.8509 26.0205 10.9687 25.4987C11.1867 24.5334 11.6 23.6168 12.1896 22.8078C12.3022 22.6541 12.4204 22.5047 12.5439 22.3598C12.769 22.0956 12.7394 21.6891 12.4586 21.4852L11.6686 20.9114C11.4881 20.7803 11.2077 20.8141 11.0754 20.9937Z" fill="#24201F"/>
<path d="M21.2945 21.7228C21.1861 21.573 21.0838 21.4191 20.9877 21.2613C20.8048 20.9607 20.4026 20.8592 20.119 21.0674L19.3488 21.6328C19.164 21.7685 19.0936 22.04 19.2295 22.2245C20.3012 23.6917 21.8628 24.5357 23.3581 24.6186C23.8929 24.6483 23.9385 23.991 23.4779 23.7177C22.626 23.2123 21.8813 22.5351 21.2945 21.7228Z" fill="#24201F"/>
<path d="M23.6465 17.5174C23.4588 17.4582 23.2735 17.3917 23.0912 17.3181C22.7663 17.187 22.3861 17.3471 22.2841 17.6823L22.0109 18.5804C21.9427 18.8044 22.0458 19.0709 22.2698 19.1391C23.9971 19.6964 25.7554 19.4594 27.013 18.6475C27.4626 18.3573 27.114 17.7988 26.5812 17.8478C25.5963 17.9385 24.5974 17.8283 23.6465 17.5174Z" fill="#24201F"/>
<path d="M22.3858 14.5536C22.4583 14.7737 22.6956 14.925 22.9172 14.8575C24.6219 14.2907 25.9187 13.0608 26.4642 11.6612C26.6583 11.1633 26.0513 10.9175 25.65 11.2704C24.9062 11.9243 24.0331 12.4244 23.0806 12.7342C22.8993 12.7915 22.7162 12.8424 22.5314 12.8866C22.193 12.9676 21.9781 13.3154 22.0869 13.6459L22.3858 14.5536Z" fill="#24201F"/>
<path d="M20.9211 11.0068C21.9852 9.53414 22.3039 7.78814 21.9203 6.33989C21.7833 5.82268 21.144 5.98094 21.0255 6.50269C20.8062 7.46792 20.3916 8.3842 19.8011 9.19267C19.6902 9.34575 19.5734 9.49439 19.451 9.63826C19.2251 9.90385 19.2541 10.3128 19.5366 10.5172L20.3274 11.0896C20.5074 11.2198 20.7893 11.1857 20.9211 11.0068Z" fill="#24201F"/>
</svg>
