<svg width="40" height="40" viewBox="0 0 40 40" fill="none" xmlns="http://www.w3.org/2000/svg">
<g clip-path="url(#clip0_382_13)">
<mask id="mask0_382_13" style="mask-type:luminance" maskUnits="userSpaceOnUse" x="0" y="0" width="40" height="40">
<path d="M40 0H0V40H40V0Z" fill="white"/>
</mask>
<g mask="url(#mask0_382_13)">
<path d="M20 0C31.0457 0 40 8.95431 40 20C40 31.0457 31.0457 40 20 40C8.95431 40 0 31.0457 0 20C0 8.95431 8.95431 0 20 0ZM20 1C9.50659 1 1 9.50659 1 20C1 30.4934 9.50659 39 20 39C30.4934 39 39 30.4934 39 20C39 9.50659 30.4934 1 20 1Z" fill="black"/>
<path d="M23.2139 7.48047V8.52148H21.1152L21.1104 22.3525C21.1103 22.3587 21.1106 22.365 21.1104 22.3711C21.0423 24.2551 19.4899 25.7703 17.5889 25.7705C16.4062 25.7705 15.3698 25.184 14.7275 24.3047L15.1475 23.9971L15.4834 23.752L14.7305 24.2979C14.3114 23.7196 14.0615 23.0087 14.0615 22.2363C14.0616 20.2901 15.6431 18.707 17.5889 18.707C17.7138 18.707 17.8365 18.716 17.957 18.7295V16.1816C17.835 16.1735 17.7125 16.169 17.5889 16.1689C17.5921 16.169 17.5728 16.1699 17.5186 16.1729C17.4948 16.1742 17.4679 16.1751 17.4395 16.1768L17.4404 16.1787C17.3977 16.1796 17.355 16.1828 17.3125 16.1846C17.2658 16.1873 17.2195 16.1902 17.1807 16.1924C17.1625 16.1934 17.1415 16.1934 17.1211 16.1943C13.9963 16.4269 11.5215 19.0481 11.5215 22.2412C11.5215 23.835 12.1391 25.2868 13.1504 26.375C14.2603 27.5661 15.8411 28.3135 17.5889 28.3135C20.9303 28.3132 23.6553 25.5911 23.6553 22.2412V14.9619C23.6553 14.7667 23.7639 14.5873 23.9375 14.498C24.1112 14.4089 24.3208 14.4243 24.4795 14.5381C25.6636 15.3881 27.0896 15.9231 28.6328 16.0225V13.4775C28.4179 13.4571 28.2075 13.4255 28.002 13.3809C26.8389 13.1345 25.8187 12.5143 25.0576 11.665L25.0527 11.6621V11.6602C25.0372 11.6428 25.0211 11.6259 25.0059 11.6084C24.2699 10.7646 23.7901 9.69581 23.6797 8.52148H23.2188V7.48047H24.1758C24.4634 7.48047 24.6963 7.71333 24.6963 8.00098C24.6963 9.11869 25.1072 10.1399 25.791 10.9238C26.4166 11.6413 27.261 12.1596 28.2178 12.3623L28.2207 12.3633C28.5178 12.4279 28.8284 12.4619 29.1533 12.4619C29.441 12.4619 29.6748 12.6958 29.6748 12.9834V16.5625C29.6748 16.8501 29.441 17.083 29.1533 17.083C27.5344 17.0829 26.0129 16.6545 24.6963 15.9092V22.2412C24.6963 26.166 21.506 29.3552 17.5889 29.3555C15.666 29.3555 13.9183 28.5831 12.6387 27.3398L12.3887 27.085C11.2062 25.8129 10.4805 24.1104 10.4805 22.2412C10.4805 18.4451 13.4642 15.3398 17.2061 15.1475C17.233 15.1459 17.2613 15.1443 17.29 15.1426C17.3497 15.139 17.4113 15.1356 17.4609 15.1328C17.5018 15.1306 17.5575 15.1279 17.5889 15.1279C17.9209 15.128 18.2393 15.1542 18.5469 15.1953C18.8053 15.23 18.9988 15.4502 18.999 15.7109V19.3682C18.999 19.5337 18.9194 19.689 18.7861 19.7871C18.6529 19.8852 18.4813 19.9143 18.3232 19.8652C18.0857 19.7914 17.8385 19.7491 17.5889 19.749C16.2192 19.749 15.1036 20.8646 15.1035 22.2363C15.1035 22.7796 15.2782 23.2781 15.5742 23.6865L15.5684 23.6904L15.6572 23.8057C16.1195 24.3695 16.8128 24.7295 17.5889 24.7295C18.9253 24.7292 20.0212 23.6615 20.0693 22.334L20.0732 8.00098C20.0733 7.7134 20.3071 7.48047 20.5947 7.48047H23.2139Z" fill="black"/>
</g>
</g>
<defs>
<clipPath id="clip0_382_13">
<rect width="40" height="40" fill="white"/>
</clipPath>
</defs>
</svg>
