<svg width="40" height="40" viewBox="0 0 40 40" fill="none" xmlns="http://www.w3.org/2000/svg">
<path d="M20.5 36C20.3128 36 20.1257 35.9517 19.9581 35.8548C19.776 35.7497 15.4494 33.2377 11.0607 29.4525C8.45955 27.2092 6.38323 24.9842 4.8895 22.8393C2.95655 20.0639 1.98451 17.3943 2.00019 14.9045C2.01854 12.0074 3.0562 9.28288 4.92224 7.23271C6.81978 5.14801 9.3521 4 12.0529 4C15.5142 4 18.6787 5.93888 20.5001 9.0103C22.3214 5.93895 25.4859 4 28.9472 4C31.4988 4 33.9332 5.03585 35.8022 6.91677C37.8534 8.98088 39.0188 11.8974 38.9998 14.9183C38.984 17.4037 37.9938 20.0693 36.0565 22.8409C34.5582 24.9846 32.4848 27.2086 29.8938 29.4513C25.5212 33.2361 21.2257 35.7481 21.0449 35.8532C20.8765 35.951 20.6882 36 20.5 36ZM12.0528 6.16796C9.96997 6.16796 8.00703 7.06434 6.52552 8.69204C5.02023 10.3458 4.18303 12.557 4.16815 14.9183C4.13845 19.6185 8.65648 24.5121 12.4519 27.7896C15.8044 30.6846 19.2048 32.8578 20.498 33.6504C21.7846 32.8565 25.161 30.6841 28.4995 27.7908C32.2842 24.5108 36.802 19.6126 36.8318 14.9046C36.8473 12.4569 35.9115 10.1025 34.2644 8.44496C32.8054 6.97668 30.917 6.16803 28.9472 6.16803C25.6329 6.16803 22.6527 8.49902 21.5316 11.9685C21.387 12.4159 20.9703 12.7191 20.5001 12.7191C20.0298 12.7191 19.6132 12.4159 19.4687 11.9684C18.3473 8.49902 15.3672 6.16796 12.0528 6.16796Z" fill="#E7713E" stroke="#E7713E" stroke-width="0.5"/>
</svg>
