<svg width="40" height="40" viewBox="0 0 40 40" fill="none" xmlns="http://www.w3.org/2000/svg">
<g clip-path="url(#clip0_96_2)">
<path d="M20 0C31.0457 0 40 8.95431 40 20C40 31.0457 31.0457 40 20 40C8.95431 40 0 31.0457 0 20C0 8.95431 8.95431 0 20 0ZM20 1C9.50659 1 1 9.50659 1 20C1 30.4934 9.50659 39 20 39C30.4934 39 39 30.4934 39 20C39 9.50659 30.4934 1 20 1ZM24.4268 11.0811C26.9202 11.1581 28.9184 13.2022 28.9209 15.7139V24.2852L28.918 24.4268C28.8409 26.9203 26.7969 28.9185 24.2852 28.9209H15.7139L15.5723 28.9189C13.0787 28.8419 11.0804 26.797 11.0781 24.2852V15.7139L11.0801 15.5723C11.1572 13.0788 13.2021 11.0814 15.7139 11.0791H24.2852L24.4268 11.0811ZM15.585 12.209C13.7076 12.2767 12.2062 13.82 12.2061 15.7139V24.2852L12.209 24.4141C12.2766 26.2915 13.8199 27.793 15.7139 27.793H24.2852L24.4141 27.791C26.2914 27.7232 27.792 26.179 27.792 24.2852V15.7139L27.79 15.5859C27.7224 13.7085 26.1791 12.2071 24.2852 12.207H15.7139L15.585 12.209ZM20.1484 14.9385C22.8752 15.0198 25.061 17.2541 25.0635 20C25.0634 22.7967 22.7958 25.0645 19.999 25.0645C17.2024 25.0643 14.9356 22.7966 14.9355 20C14.9355 17.2533 17.122 15.0167 19.8496 14.9375L19.999 14.9355L20.1484 14.9385ZM19.999 16.0645C17.8255 16.0646 16.0635 17.8264 16.0635 20C16.0636 22.1736 17.8255 23.9354 19.999 23.9355C22.1727 23.9355 23.9355 22.1737 23.9355 20C23.9355 17.8263 22.1728 16.0645 19.999 16.0645ZM24.9277 13.8643C25.3576 13.8643 25.706 14.2127 25.7061 14.6426C25.7061 15.0725 25.3576 15.4209 24.9277 15.4209C24.4979 15.4208 24.1494 15.0724 24.1494 14.6426C24.1495 14.2128 24.498 13.8644 24.9277 13.8643Z" fill="black"/>
</g>
<defs>
<clipPath id="clip0_96_2">
<rect width="40" height="40" fill="white"/>
</clipPath>
</defs>
</svg>
