<svg width="40" height="40" viewBox="0 0 40 40" fill="none" xmlns="http://www.w3.org/2000/svg">
<path d="M15.8121 39.2501C15.6246 39.2501 15.4996 39.1876 15.3746 39.1251C14.9371 38.9376 14.6871 38.4376 14.7496 37.9376L17.3121 24.3751H4.68715C4.24965 24.3751 3.87465 24.1251 3.68715 23.7501C3.49965 23.3751 3.56215 22.9376 3.81215 22.6251L19.8121 1.25007C20.1246 0.875071 20.5621 0.687571 21.0621 0.875071C21.4996 1.00007 21.8121 1.43757 21.8121 1.93757V13.5001H35.3746C35.8121 13.5001 36.1871 13.7501 36.3746 14.1251C36.5621 14.5001 36.4996 14.9376 36.2496 15.3126L16.6871 38.8126C16.4371 39.0626 16.1246 39.2501 15.8121 39.2501ZM6.87465 22.1876H18.6246C18.9371 22.1876 19.2496 22.3126 19.4371 22.5626C19.6246 22.8126 19.7496 23.1251 19.6871 23.4376L17.6871 34.1251L32.9996 15.6251H20.6871C20.0621 15.6251 19.5621 15.1251 19.5621 14.5001V5.12507L6.87465 22.1876Z" fill="#FBCB6E" stroke="#FBCB6E" stroke-width="0.4"/>
</svg>
