<svg width="108" height="47" viewBox="0 0 108 47" fill="none" xmlns="http://www.w3.org/2000/svg">
<path fill-rule="evenodd" clip-rule="evenodd" d="M67.4678 40.589H53.2855V6.92822H66.2663C70.0547 6.92822 72.856 7.75837 74.673 9.41866C76.5209 11.0787 77.445 13.4608 77.445 16.5656C77.445 19.2088 76.8292 21.2227 75.5971 22.6059C74.7954 23.51 73.7182 24.1804 72.3674 24.6173C73.2628 24.8328 74.0313 25.1304 74.673 25.5113C75.8438 26.1884 76.6911 27.0951 77.2144 28.2318C77.7373 29.3391 78.0001 30.6446 78.0001 32.151C78.0001 33.8113 77.6459 35.2868 76.9367 36.5775C76.2286 37.8695 75.1048 38.8685 73.5652 39.5754C72.0247 40.2514 69.9928 40.589 67.4678 40.589ZM56.9814 17.3035V22.6526H69.4994C70.7934 22.6526 71.7322 22.4062 72.3181 21.9147C72.9337 21.4233 73.2423 20.7929 73.2423 20.0243C73.2423 19.1942 72.9486 18.5328 72.3637 18.0414C71.8098 17.5499 70.87 17.3035 69.5464 17.3035H56.9814ZM56.9814 26.8942V32.7508H69.8226C71.2402 32.7508 72.2714 32.4886 72.9179 31.9662C73.5652 31.4132 73.8884 30.7062 73.8884 29.8454C73.8884 28.9548 73.5652 28.2467 72.9179 27.7244C72.2714 27.1713 71.2402 26.8942 69.8226 26.8942H56.9814ZM37.2143 17.6262H30.516V6.92822H47.654V17.6262H40.9102V32.4281H47.5626V40.589H30.563V32.4281H37.2143V17.6262ZM88.9914 32.4281H107.592V40.589H80.9842V33.581L99.1636 17.6262H81.9539V6.92822H106.899V16.6126L88.9914 32.4281ZM11.488 31.9719L18.6637 15.0446H26.6091L15.7994 40.589H11.1808L0.694336 15.0446H4.4826L11.488 31.9719Z" fill="black"/>
</svg>
