<svg width="98" height="32" viewBox="0 0 98 32" fill="none" xmlns="http://www.w3.org/2000/svg">
<path fill-rule="evenodd" clip-rule="evenodd" d="M10.5669 2L12.9924 7.87269L15.4785 2H18.7933L14.6902 11.7134H12.7489L8.76918 2H10.5669ZM10.5669 29.5625H8.76918L12.7489 19.8491H14.6902L18.7933 29.5625H15.4785L12.9924 23.6898L10.5669 29.5625ZM27.5625 12.5669L21.6898 14.993L27.5625 17.4785V20.7933L17.8491 16.6909V14.749L27.5625 10.7692V12.5669ZM0 12.5669V10.7692L9.71345 14.749V16.6909L0 20.7933V17.4785L5.87275 14.993L0 12.5669ZM1.7638 8.30922L7.63125 10.7464L5.2366 4.83651L7.5803 2.49265L11.5476 12.2622L10.1747 13.6351L0.492142 9.58034L1.7638 8.30922ZM21.2532 27.7988L19.9822 29.0699L15.9274 19.3878L17.3003 18.0148L27.0697 21.9821L24.7259 24.326L18.8161 21.9312L21.2532 27.7988ZM21.2532 3.76376L18.8161 9.63124L24.7259 7.23648L27.0697 9.58034L17.3003 13.5483L15.9274 12.1754L19.9822 2.49265L21.2532 3.76376ZM1.7638 23.2532L0.492142 21.9821L10.1747 17.9274L11.5476 19.3004L7.5803 29.0699L5.2366 26.726L7.63125 20.8161L1.7638 23.2532Z" fill="black"/>
<path fill-rule="evenodd" clip-rule="evenodd" d="M73.8218 26.2133H65.2975V5.98145H73.0996C75.3767 5.98145 77.0604 6.48041 78.1525 7.47833C79.2632 8.47608 79.8186 9.90787 79.8186 11.774C79.8186 13.3627 79.4485 14.5732 78.7079 15.4045C78.226 15.948 77.5786 16.3509 76.7667 16.6135C77.3049 16.743 77.7668 16.9219 78.1525 17.1508C78.8562 17.5578 79.3655 18.1028 79.68 18.786C79.9943 19.4515 80.1522 20.2362 80.1522 21.1417C80.1522 22.1396 79.9393 23.0264 79.5131 23.8022C79.0875 24.5788 78.412 25.1792 77.4866 25.6041C76.5607 26.0104 75.3395 26.2133 73.8218 26.2133ZM67.5189 12.2175V15.4326H75.0429C75.8207 15.4326 76.3849 15.2845 76.7371 14.9891C77.107 14.6937 77.2925 14.3148 77.2925 13.8529C77.2925 13.3539 77.116 12.9564 76.7645 12.661C76.4316 12.3656 75.8667 12.2175 75.0711 12.2175H67.5189ZM67.5189 17.982V21.5021H75.2372C76.0892 21.5021 76.709 21.3446 77.0976 21.0306C77.4866 20.6982 77.6809 20.2733 77.6809 19.7559C77.6809 19.2206 77.4866 18.795 77.0976 18.481C76.709 18.1486 76.0892 17.982 75.2372 17.982H67.5189ZM55.6379 12.4115H51.6119V5.98145H61.9127V12.4115H57.8593V21.3082H61.8577V26.2133H51.6401V21.3082H55.6379V12.4115ZM86.7586 21.3082H97.9386V26.2133H81.9458V22.0011L92.8726 12.4115H82.5287V5.98145H97.522V11.8023L86.7586 21.3082ZM40.1751 21.034L44.488 10.8598H49.2636L42.7664 26.2133H39.9904L33.6875 10.8598H35.9644L40.1751 21.034Z" fill="black"/>
</svg>
