<svg width="311" height="90" viewBox="0 0 311 90" fill="none" xmlns="http://www.w3.org/2000/svg">
<path fill-rule="evenodd" clip-rule="evenodd" d="M34.5042 0L42.4242 19.1761L50.5421 0H61.3659L47.9679 31.7173H41.6291L28.6341 0H34.5042ZM34.5042 90H28.6341L41.6291 58.2829H47.9679L61.3659 90H50.5421L42.4242 70.8238L34.5042 90ZM90 34.5043L70.8237 42.4261L90 50.5419V61.3658L58.2826 47.9702V41.6292L90 28.6342V34.5043ZM0 34.5043V28.6342L31.7174 41.6292V47.9702L0 61.3658V50.5419L19.1763 42.4261L0 34.5043ZM5.75936 20.6015L24.9184 28.5597L17.0991 9.26209L24.752 1.60866L37.7066 33.5092L33.2236 37.9922L1.607 24.7521L5.75936 20.6015ZM69.3983 84.241L65.248 88.3915L52.0079 56.7764L56.4909 52.2933L88.3909 65.2477L80.7375 72.9012L61.4405 65.0816L69.3983 84.241ZM69.3983 5.75922L61.4405 24.9183L80.7375 17.0987L88.3909 24.7521L56.4909 37.7088L52.0079 33.2258L65.248 1.60866L69.3983 5.75922ZM5.75936 69.3983L1.607 65.2477L33.2236 52.0078L37.7066 56.4909L24.752 88.3915L17.0991 80.7381L24.9184 61.4405L5.75936 69.3983Z" fill="black"/>
<path fill-rule="evenodd" clip-rule="evenodd" d="M232.176 79H204.315V13H229.816C237.258 13 242.761 14.6277 246.33 17.8831C249.961 21.138 251.776 25.8087 251.776 31.8965C251.776 37.0791 250.566 41.0278 248.146 43.7399C246.571 45.5127 244.455 46.8271 241.801 47.6837C243.56 48.1062 245.07 48.6898 246.33 49.4366C248.631 50.7642 250.295 52.542 251.323 54.7709C252.35 56.9419 252.866 59.5018 252.866 62.4555C252.866 65.7109 252.171 68.6039 250.778 71.1345C249.387 73.6679 247.179 75.6265 244.154 77.0127C241.128 78.3381 237.136 79 232.176 79ZM211.575 33.3432V43.8315H236.167C238.709 43.8315 240.553 43.3483 241.704 42.3847C242.914 41.4211 243.52 40.185 243.52 38.6781C243.52 37.0504 242.943 35.7536 241.794 34.79C240.706 33.8264 238.859 33.3432 236.259 33.3432H211.575ZM211.575 52.1481V63.6314H236.802C239.587 63.6314 241.613 63.1174 242.883 62.0931C244.154 61.0087 244.789 59.6226 244.789 57.9347C244.789 56.1884 244.154 54.8001 242.883 53.7758C241.613 52.6914 239.587 52.1481 236.802 52.1481H211.575ZM172.743 33.9759H159.584V13H193.252V33.9759H180.004V62.9988H193.072V79H159.677V62.9988H172.743V33.9759ZM274.459 62.9988H311V79H258.729V65.2591L294.442 33.9759H260.634V13H309.638V31.9886L274.459 62.9988ZM122.204 62.1041L136.301 28.9141H151.909L130.674 79H121.601L101 28.9141H108.442L122.204 62.1041Z" fill="black"/>
</svg>
