<svg width="46" height="47" viewBox="0 0 46 47" fill="none" xmlns="http://www.w3.org/2000/svg">
<path fill-rule="evenodd" clip-rule="evenodd" d="M17.6355 0.0932617L21.6835 9.8944L25.8326 0.0932617H31.3648L24.5169 16.3043H21.2771L14.6352 0.0932617H17.6355ZM17.6355 46.0933H14.6352L21.2771 29.8823H24.5169L31.3648 46.0933H25.8326L21.6835 36.2921L17.6355 46.0933ZM46 17.7288L36.1988 21.7777L46 25.9258V31.458L29.7889 24.6114V21.3704L46 14.7285V17.7288ZM0 17.7288V14.7285L16.2111 21.3704V24.6114L0 31.458V25.9258L9.80123 21.7777L0 17.7288ZM2.94367 10.6229L12.7361 14.6904L8.73954 4.82722L12.651 0.915468L19.2723 17.2202L16.981 19.5115L0.821353 12.7443L2.94367 10.6229ZM35.4702 43.1498L33.349 45.2711L26.5818 29.1123L28.8731 26.821L45.1776 33.4421L41.2658 37.3539L31.4029 33.3572L35.4702 43.1498ZM35.4702 3.03686L31.4029 12.8293L41.2658 8.83261L45.1776 12.7443L28.8731 19.3666L26.5818 17.0754L33.349 0.915468L35.4702 3.03686ZM2.94367 35.5635L0.821353 33.4421L16.981 26.675L19.2723 28.9664L12.651 45.2711L8.73954 41.3594L12.7361 31.4962L2.94367 35.5635Z" fill="black"/>
</svg>
