<svg width="40" height="40" viewBox="0 0 40 40" fill="none" xmlns="http://www.w3.org/2000/svg">
<path d="M20 2C10.0748 2 2 10.0748 2 20C2 29.9252 10.0748 38 20 38C29.9252 38 38 29.9252 38 20C38 10.0748 29.9252 2 20 2ZM20 35.8906C11.2379 35.8906 4.10938 28.7621 4.10938 20C4.10938 11.2379 11.2379 4.10938 20 4.10938C28.7621 4.10938 35.8906 11.2379 35.8906 20C35.8906 28.7621 28.7621 35.8906 20 35.8906Z" fill="#3BDC5E" stroke="#3BDC5E" stroke-width="0.5"/>
<path d="M15.7034 16.6251C15.892 17.1762 16.4916 17.4699 17.0428 17.2813C17.5939 17.0926 17.8877 16.493 17.699 15.9418C17.0615 14.0795 15.3104 12.8281 13.3419 12.8281C11.3718 12.8281 9.62049 14.0806 8.98367 15.9449C8.79538 16.496 9.08956 17.0955 9.64081 17.2838C9.75374 17.3224 9.86877 17.3408 9.98183 17.3408C10.4204 17.3408 10.8301 17.0649 10.9798 16.6268C11.3249 15.6164 12.2742 14.9376 13.3419 14.9376C14.4088 14.9375 15.3578 15.6157 15.7034 16.6251Z" fill="#3BDC5E" stroke="#3BDC5E" stroke-width="0.5"/>
<path d="M26.6651 12.8281C24.6951 12.8281 22.9437 14.0806 22.3069 15.9449C22.1186 16.496 22.4128 17.0955 22.9641 17.2838C23.077 17.3224 23.192 17.3408 23.3051 17.3408C23.7437 17.3408 24.1533 17.0649 24.3031 16.6268C24.6482 15.6164 25.5975 14.9376 26.6652 14.9376C27.7321 14.9376 28.6811 15.6158 29.0267 16.6251C29.2153 17.1762 29.8149 17.4699 30.3661 17.2814C30.9172 17.0926 31.211 16.493 31.0224 15.9419C30.3847 14.0795 28.6337 12.8281 26.6651 12.8281Z" fill="#3BDC5E" stroke="#3BDC5E" stroke-width="0.5"/>
<path d="M26.8825 24.4026C26.3821 24.1042 25.7347 24.2683 25.4367 24.7687C24.3014 26.6741 22.2183 27.8578 20.0003 27.8578C17.7886 27.8578 15.7086 26.6792 14.5719 24.782C14.2726 24.2825 13.6249 24.12 13.1251 24.4194C12.6255 24.7187 12.463 25.3665 12.7624 25.8661C14.278 28.3957 17.0514 29.9672 20.0003 29.9672C22.9575 29.9672 25.7349 28.389 27.2486 25.8485C27.5469 25.3481 27.3829 24.7007 26.8825 24.4026Z" fill="#3BDC5E" stroke="#3BDC5E" stroke-width="0.5"/>
</svg>
