<svg width="420" height="237" viewBox="0 0 420 237" fill="none" xmlns="http://www.w3.org/2000/svg">
<rect x="29" y="149" width="179" height="56" rx="28" fill="#242424"/>
<path d="M74.7097 183V169.986H79.6777C82.2157 169.986 83.7637 171.282 83.7637 173.424C83.7637 174.918 83.1157 175.926 81.8197 176.466C83.2597 176.934 83.9977 177.978 83.9977 179.526C83.9977 181.686 82.4317 183 79.8577 183H74.7097ZM79.5697 171.552H76.4737V175.728H79.6777C81.1357 175.728 81.9637 174.936 81.9637 173.586C81.9637 172.29 81.0997 171.552 79.5697 171.552ZM79.8217 177.258H76.4737V181.434H79.8217C81.3337 181.434 82.1797 180.66 82.1797 179.31C82.1797 178.014 81.3157 177.258 79.8217 177.258ZM92.1817 174.198H93.8557V183H92.3437L92.1637 181.668C91.6597 182.586 90.4897 183.216 89.1937 183.216C87.1417 183.216 85.9897 181.83 85.9897 179.67V174.198H87.6817V179.112C87.6817 181.002 88.4917 181.722 89.7877 181.722C91.3357 181.722 92.1817 180.732 92.1817 178.842V174.198ZM98.9746 183H97.2826V175.62H95.5546V174.198H97.2826V171.444H98.9746V174.198H100.703V175.62H98.9746V183ZM105.043 183H103.351V175.62H101.623V174.198H103.351V171.444H105.043V174.198H106.771V175.62H105.043V183ZM107.806 178.59C107.806 175.872 109.75 173.964 112.396 173.964C115.024 173.964 116.968 175.872 116.968 178.59C116.968 181.308 115.024 183.216 112.396 183.216C109.75 183.216 107.806 181.308 107.806 178.59ZM109.516 178.59C109.516 180.426 110.686 181.704 112.396 181.704C114.088 181.704 115.276 180.426 115.276 178.59C115.276 176.754 114.088 175.476 112.396 175.476C110.686 175.476 109.516 176.754 109.516 178.59ZM120.713 183H119.021V174.198H120.551L120.731 175.548C121.289 174.54 122.405 173.946 123.647 173.946C125.969 173.946 127.031 175.368 127.031 177.618V183H125.339V177.996C125.339 176.214 124.511 175.494 123.215 175.494C121.631 175.494 120.713 176.628 120.713 178.338V183ZM137.14 183H135.448V175.62H133.72V174.198H135.448V171.444H137.14V174.198H138.868V175.62H137.14V183ZM144.277 183.216C141.685 183.216 139.903 181.344 139.903 178.608C139.903 175.854 141.649 173.946 144.205 173.946C146.707 173.946 148.345 175.674 148.345 178.284V178.914L141.541 178.932C141.667 180.786 142.639 181.812 144.313 181.812C145.627 181.812 146.491 181.272 146.779 180.264H148.363C147.931 182.154 146.455 183.216 144.277 183.216ZM144.205 175.368C142.729 175.368 141.793 176.25 141.577 177.798H146.653C146.653 176.34 145.699 175.368 144.205 175.368ZM150.981 183H149.037L152.115 178.644L149.055 174.198H151.017L153.249 177.474L155.427 174.198H157.353L154.293 178.644L157.299 183H155.337L153.141 179.778L150.981 183ZM161.78 183H160.088V175.62H158.36V174.198H160.088V171.444H161.78V174.198H163.508V175.62H161.78V183Z" fill="white"/>
<path d="M277.384 103.123L279.315 99.2329C279.562 98.7336 280.279 98.7336 280.527 99.2329L282.458 103.123L286.776 103.75C287.33 103.831 287.551 104.508 287.15 104.896L284.026 107.922L284.763 112.196C284.858 112.745 284.278 113.164 283.782 112.905L279.921 110.885L276.059 112.905C275.563 113.164 274.984 112.745 275.078 112.196L275.816 107.922L272.691 104.896C272.29 104.508 272.511 103.831 273.065 103.75L277.384 103.123Z" fill="#242424" stroke="#242424" stroke-width="1.11513" stroke-linecap="round" stroke-linejoin="round"/>
<path d="M301.173 103.123L303.104 99.2329C303.352 98.7336 304.068 98.7336 304.316 99.2329L306.247 103.123L310.565 103.75C311.119 103.831 311.34 104.508 310.939 104.896L307.815 107.922L308.552 112.196C308.647 112.745 308.067 113.164 307.571 112.905L303.71 110.885L299.848 112.905C299.352 113.164 298.773 112.745 298.867 112.196L299.605 107.922L296.48 104.896C296.079 104.508 296.3 103.831 296.854 103.75L301.173 103.123Z" fill="#242424" stroke="#242424" stroke-width="1.11513" stroke-linecap="round" stroke-linejoin="round"/>
<path d="M324.962 103.123L326.893 99.2329C327.141 98.7336 327.857 98.7336 328.105 99.2329L330.036 103.123L334.354 103.75C334.908 103.831 335.129 104.508 334.728 104.896L331.604 107.922L332.341 112.196C332.436 112.745 331.856 113.164 331.36 112.905L327.499 110.885L323.637 112.905C323.141 113.164 322.562 112.745 322.656 112.196L323.394 107.922L320.269 104.896C319.868 104.508 320.089 103.831 320.643 103.75L324.962 103.123Z" fill="#242424" stroke="#242424" stroke-width="1.11513" stroke-linecap="round" stroke-linejoin="round"/>
<path d="M348.753 103.123L350.684 99.2329C350.932 98.7336 351.648 98.7336 351.896 99.2329L353.827 103.123L358.145 103.75C358.699 103.831 358.92 104.508 358.519 104.896L355.395 107.922L356.132 112.196C356.227 112.745 355.647 113.164 355.151 112.905L351.29 110.885L347.428 112.905C346.932 113.164 346.353 112.745 346.447 112.196L347.185 107.922L344.06 104.896C343.659 104.508 343.88 103.831 344.434 103.75L348.753 103.123Z" fill="#242424" stroke="#242424" stroke-width="1.11513" stroke-linecap="round" stroke-linejoin="round"/>
<path d="M372.542 103.123L374.473 99.2329C374.721 98.7336 375.437 98.7336 375.685 99.2329L377.616 103.123L381.934 103.75C382.488 103.831 382.709 104.508 382.308 104.896L379.184 107.922L379.921 112.196C380.016 112.745 379.436 113.164 378.94 112.905L375.079 110.885L371.217 112.905C370.721 113.164 370.142 112.745 370.236 112.196L370.974 107.922L367.85 104.896C367.448 104.508 367.669 103.831 368.223 103.75L372.542 103.123Z" fill="#242424" stroke="#242424" stroke-width="1.11513" stroke-linecap="round" stroke-linejoin="round"/>
<path d="M242.207 185.207C243.242 175.379 247.897 172.276 256.69 170.207" stroke="#242424" stroke-width="1.55172" stroke-linecap="round" stroke-linejoin="round"/>
<path d="M252.457 167.941L257.098 170.105L254.934 174.746" stroke="#242424" stroke-width="1.55172" stroke-linecap="round" stroke-linejoin="round"/>
<path d="M241.172 171.241C242.315 171.241 243.241 170.315 243.241 169.172C243.241 168.03 242.315 167.104 241.172 167.104C240.03 167.104 239.104 168.03 239.104 169.172C239.104 170.315 240.03 171.241 241.172 171.241Z" stroke="#242424" stroke-width="1.55172" stroke-linecap="round" stroke-linejoin="round"/>
<path d="M252.551 184.941L254.745 182.746M254.745 182.746L256.94 180.552M254.745 182.746L252.551 180.552M254.745 182.746L256.94 184.941" stroke="#242424" stroke-width="1.55172" stroke-linecap="round" stroke-linejoin="round"/>
<g clip-path="url(#clip0_17_3961)">
<path d="M285.035 173.31L289.69 176.414L294.346 173.31" stroke="#242424" stroke-width="1.55172" stroke-linecap="round" stroke-linejoin="round"/>
<path d="M278.828 177.965H280.896" stroke="#242424" stroke-width="1.55172" stroke-linecap="round" stroke-linejoin="round"/>
<path d="M276.759 174.862H280.896" stroke="#242424" stroke-width="1.55172" stroke-linecap="round" stroke-linejoin="round"/>
<path d="M280.896 171.759V171.241C280.896 170.099 281.823 169.172 282.965 169.172H296.413C297.556 169.172 298.482 170.099 298.482 171.241V181.586C298.482 182.729 297.556 183.655 296.413 183.655H282.965C281.823 183.655 280.896 182.729 280.896 181.586V181.069" stroke="#242424" stroke-width="1.55172" stroke-linecap="round"/>
</g>
<path d="M327.863 166.069V170.207" stroke="#242424" stroke-width="1.55172" stroke-linecap="round" stroke-linejoin="round"/>
<path d="M327.863 182.621V186.759" stroke="#242424" stroke-width="1.55172" stroke-linecap="round" stroke-linejoin="round"/>
<path d="M338.207 176.414H334.069" stroke="#242424" stroke-width="1.55172" stroke-linecap="round" stroke-linejoin="round"/>
<path d="M321.656 176.414H317.518" stroke="#242424" stroke-width="1.55172" stroke-linecap="round" stroke-linejoin="round"/>
<path d="M320.549 169.099L323.475 172.025" stroke="#242424" stroke-width="1.55172" stroke-linecap="round" stroke-linejoin="round"/>
<path d="M332.252 180.802L335.178 183.728" stroke="#242424" stroke-width="1.55172" stroke-linecap="round" stroke-linejoin="round"/>
<path d="M335.178 169.099L332.252 172.025" stroke="#242424" stroke-width="1.55172" stroke-linecap="round" stroke-linejoin="round"/>
<path d="M323.475 180.802L320.549 183.728" stroke="#242424" stroke-width="1.55172" stroke-linecap="round" stroke-linejoin="round"/>
<path d="M362.414 183.655V175.38C362.414 174.237 363.34 173.311 364.483 173.311H375.862C377.005 173.311 377.931 174.237 377.931 175.38V183.655C377.931 184.798 377.005 185.724 375.862 185.724H364.483C363.34 185.724 362.414 184.798 362.414 183.655Z" stroke="#242424" stroke-width="1.55172"/>
<path d="M361.895 180.551H359.309C358.167 180.551 357.24 179.625 357.24 178.483V170.207C357.24 169.064 358.167 168.138 359.309 168.138H370.689C371.831 168.138 372.757 169.064 372.757 170.207V173.31" stroke="#242424" stroke-width="1.55172"/>
<path d="M365.518 176.414H366.552" stroke="#242424" stroke-width="1.55172" stroke-linecap="round" stroke-linejoin="round"/>
<path d="M360.344 171.241H361.378" stroke="#242424" stroke-width="1.55172" stroke-linecap="round" stroke-linejoin="round"/>
<path d="M89.85 117.316C88.714 117.316 87.6727 117.032 86.726 116.464C85.8003 115.874 85.0535 115.107 84.4855 114.16C83.9385 113.192 83.665 112.13 83.665 110.973V109.521C83.665 109.416 83.7176 109.363 83.8228 109.363H87.3571C87.4412 109.363 87.4833 109.416 87.4833 109.521V110.973C87.4833 111.667 87.7147 112.267 88.1776 112.771C88.6404 113.255 89.1979 113.497 89.85 113.497C90.5022 113.497 91.0597 113.245 91.5225 112.74C91.9853 112.235 92.2168 111.646 92.2168 110.973C92.2168 110.194 91.7119 109.521 90.7021 108.953C90.3655 108.764 89.8395 108.469 89.1242 108.07C88.409 107.67 87.7358 107.291 87.1046 106.934C85.9476 106.26 85.085 105.419 84.517 104.409C83.9701 103.378 83.6966 102.221 83.6966 100.938C83.6966 99.7598 83.9806 98.7079 84.5486 97.7822C85.1166 96.8356 85.8634 96.0887 86.7891 95.5417C87.7358 94.9948 88.7561 94.7213 89.85 94.7213C90.965 94.7213 91.9853 95.0053 92.911 95.5733C93.8577 96.1203 94.6045 96.8671 95.1515 97.8138C95.7195 98.7394 96.0035 99.7808 96.0035 100.938V103.525C96.0035 103.61 95.9614 103.652 95.8773 103.652H92.343C92.2588 103.652 92.2168 103.61 92.2168 103.525L92.1852 100.938C92.1852 100.202 91.9538 99.602 91.491 99.1392C91.0281 98.6763 90.4812 98.4449 89.85 98.4449C89.1979 98.4449 88.6404 98.6974 88.1776 99.2023C87.7147 99.6861 87.4833 100.265 87.4833 100.938C87.4833 101.632 87.6306 102.211 87.9251 102.673C88.2196 103.136 88.7561 103.578 89.5345 103.999C89.6397 104.062 89.8395 104.178 90.134 104.346C90.4496 104.493 90.7862 104.672 91.1438 104.882C91.5015 105.072 91.817 105.24 92.0905 105.387C92.3851 105.535 92.5639 105.629 92.627 105.671C93.6789 106.26 94.5098 106.986 95.1199 107.849C95.73 108.69 96.0351 109.732 96.0351 110.973C96.0351 112.172 95.7511 113.255 95.183 114.223C94.6361 115.17 93.8892 115.927 92.9426 116.495C92.0169 117.042 90.9861 117.316 89.85 117.316ZM103.089 117.316C101.974 117.316 100.944 117.032 99.9969 116.464C99.0502 115.874 98.2928 115.096 97.7248 114.128C97.1778 113.161 96.9043 112.098 96.9043 110.941L96.9675 95.1631C96.9675 95.0789 97.0095 95.0368 97.0937 95.0368H100.628C100.712 95.0368 100.754 95.0789 100.754 95.1631V110.941C100.754 111.656 100.975 112.267 101.417 112.771C101.88 113.255 102.437 113.497 103.089 113.497C103.763 113.497 104.32 113.255 104.762 112.771C105.225 112.267 105.456 111.656 105.456 110.941V95.1631C105.456 95.0789 105.498 95.0368 105.582 95.0368H109.117C109.201 95.0368 109.243 95.0789 109.243 95.1631L109.306 110.941C109.306 112.119 109.022 113.192 108.454 114.16C107.907 115.128 107.16 115.896 106.213 116.464C105.288 117.032 104.246 117.316 103.089 117.316ZM111.135 117C110.967 117 110.883 116.926 110.883 116.779L110.851 95.2893C110.851 95.121 110.935 95.0368 111.103 95.0368H113.943L119.276 107.47L119.119 95.2893C119.119 95.121 119.213 95.0368 119.403 95.0368H122.527C122.653 95.0368 122.716 95.121 122.716 95.2893L122.748 116.811C122.748 116.937 122.695 117 122.59 117H119.813L114.354 105.387L114.575 116.748C114.575 116.916 114.48 117 114.291 117H111.135ZM129.907 117.316C128.771 117.316 127.729 117.032 126.783 116.464C125.857 115.874 125.11 115.107 124.542 114.16C123.995 113.192 123.722 112.13 123.722 110.973V109.521C123.722 109.416 123.774 109.363 123.88 109.363H127.414C127.498 109.363 127.54 109.416 127.54 109.521V110.973C127.54 111.667 127.771 112.267 128.234 112.771C128.697 113.255 129.255 113.497 129.907 113.497C130.559 113.497 131.116 113.245 131.579 112.74C132.042 112.235 132.273 111.646 132.273 110.973C132.273 110.194 131.769 109.521 130.759 108.953C130.422 108.764 129.896 108.469 129.181 108.07C128.466 107.67 127.792 107.291 127.161 106.934C126.004 106.26 125.142 105.419 124.574 104.409C124.027 103.378 123.753 102.221 123.753 100.938C123.753 99.7598 124.037 98.7079 124.605 97.7822C125.173 96.8356 125.92 96.0887 126.846 95.5417C127.792 94.9948 128.813 94.7213 129.907 94.7213C131.022 94.7213 132.042 95.0053 132.968 95.5733C133.914 96.1203 134.661 96.8671 135.208 97.8138C135.776 98.7394 136.06 99.7808 136.06 100.938V103.525C136.06 103.61 136.018 103.652 135.934 103.652H132.4C132.316 103.652 132.273 103.61 132.273 103.525L132.242 100.938C132.242 100.202 132.011 99.602 131.548 99.1392C131.085 98.6763 130.538 98.4449 129.907 98.4449C129.255 98.4449 128.697 98.6974 128.234 99.2023C127.771 99.6861 127.54 100.265 127.54 100.938C127.54 101.632 127.687 102.211 127.982 102.673C128.276 103.136 128.813 103.578 129.591 103.999C129.696 104.062 129.896 104.178 130.191 104.346C130.506 104.493 130.843 104.672 131.201 104.882C131.558 105.072 131.874 105.24 132.147 105.387C132.442 105.535 132.621 105.629 132.684 105.671C133.736 106.26 134.567 106.986 135.177 107.849C135.787 108.69 136.092 109.732 136.092 110.973C136.092 112.172 135.808 113.255 135.24 114.223C134.693 115.17 133.946 115.927 132.999 116.495C132.074 117.042 131.043 117.316 129.907 117.316ZM137.466 117C137.382 117 137.34 116.947 137.34 116.842L137.371 95.1631C137.371 95.0789 137.424 95.0368 137.529 95.0368H141.032C141.137 95.0368 141.19 95.0789 141.19 95.1631L141.158 103.746H145.891V95.1631C145.891 95.0789 145.934 95.0368 146.018 95.0368H149.52C149.626 95.0368 149.678 95.0789 149.678 95.1631L149.741 116.842C149.741 116.947 149.689 117 149.584 117H146.049C145.944 117 145.891 116.947 145.891 116.842V107.565H141.158V116.842C141.158 116.947 141.116 117 141.032 117H137.466ZM151.528 117C151.423 117 151.37 116.947 151.37 116.842L151.402 95.1631C151.402 95.0789 151.444 95.0368 151.528 95.0368H155.062C155.146 95.0368 155.188 95.0789 155.188 95.1631L155.22 116.842C155.22 116.947 155.178 117 155.094 117H151.528ZM157.333 117C157.165 117 157.08 116.926 157.08 116.779L157.049 95.2893C157.049 95.121 157.133 95.0368 157.301 95.0368H160.141L165.474 107.47L165.317 95.2893C165.317 95.121 165.411 95.0368 165.601 95.0368H168.725C168.851 95.0368 168.914 95.121 168.914 95.2893L168.946 116.811C168.946 116.937 168.893 117 168.788 117H166.011L160.552 105.387L160.772 116.748C160.772 116.916 160.678 117 160.488 117H157.333ZM170.866 117C170.782 117 170.74 116.947 170.74 116.842L170.772 95.1631C170.772 95.0789 170.814 95.0368 170.898 95.0368H181.027C181.112 95.0368 181.154 95.0894 181.154 95.1946V98.7289C181.154 98.8131 181.112 98.8552 181.027 98.8552H174.558V103.778H181.027C181.112 103.778 181.154 103.82 181.154 103.904L181.185 107.47C181.185 107.554 181.143 107.596 181.059 107.596H174.558V113.119H181.059C181.143 113.119 181.185 113.171 181.185 113.276V116.874C181.185 116.958 181.143 117 181.059 117H170.866ZM186.908 117C186.824 117 186.782 116.947 186.782 116.842L186.845 95.1631C186.845 95.0789 186.887 95.0368 186.971 95.0368H190.821C190.905 95.0368 190.979 95.0789 191.042 95.1631L193.914 99.3285L196.785 95.1631C196.848 95.0789 196.922 95.0368 197.006 95.0368H200.888C200.972 95.0368 201.014 95.0789 201.014 95.1631L201.077 116.842C201.077 116.947 201.035 117 200.951 117H197.385C197.301 117 197.259 116.947 197.259 116.842L197.227 100.749L193.914 105.545L190.632 100.749L190.6 116.842C190.6 116.947 190.558 117 190.474 117H186.908ZM202.942 117C202.837 117 202.784 116.947 202.784 116.842L202.816 95.1631C202.816 95.0789 202.858 95.0368 202.942 95.0368H206.477C206.561 95.0368 206.603 95.0789 206.603 95.1631L206.634 116.842C206.634 116.947 206.592 117 206.508 117H202.942ZM208.747 117C208.579 117 208.495 116.926 208.495 116.779L208.463 95.2893C208.463 95.121 208.548 95.0368 208.716 95.0368H211.556L216.889 107.47L216.731 95.2893C216.731 95.121 216.826 95.0368 217.015 95.0368H220.139C220.265 95.0368 220.329 95.121 220.329 95.2893L220.36 116.811C220.36 116.937 220.307 117 220.202 117H217.425L211.966 105.387L212.187 116.748C212.187 116.916 212.092 117 211.903 117H208.747ZM222.312 117C222.207 117 222.155 116.947 222.155 116.842L222.218 95.1631C222.218 95.0789 222.26 95.0368 222.344 95.0368L228.245 95.0053C229.402 94.9843 230.454 95.2577 231.401 95.8258C232.368 96.3938 233.136 97.1616 233.704 98.1294C234.272 99.076 234.556 100.128 234.556 101.285V110.342C234.556 111.562 234.262 112.677 233.673 113.687C233.084 114.675 232.295 115.464 231.306 116.053C230.317 116.642 229.202 116.947 227.961 116.968L222.312 117ZM226.004 113.119H227.961C228.739 113.119 229.391 112.845 229.917 112.298C230.464 111.751 230.738 111.099 230.738 110.342V101.253C230.738 100.58 230.485 100.002 229.981 99.5178C229.497 99.0129 228.918 98.771 228.245 98.792L226.036 98.8236L226.004 113.119Z" fill="#24201F"/>
<path d="M53.9537 125.657C54.1451 125.974 53.8573 126.359 53.5231 126.199C50.6983 124.846 48.6907 121.526 48.6816 117.638C48.6816 117.516 48.6944 117.396 48.7096 117.277C48.7354 117.077 48.908 116.923 49.1099 116.923H51.8501C52.0927 116.923 52.2758 117.143 52.2423 117.383C52.1642 117.944 52.1273 118.51 52.1321 119.077C52.1262 121.403 52.76 123.678 53.9537 125.657Z" fill="#24201F"/>
<path d="M59.6875 105.5C59.6636 104.318 59.4069 103.153 58.9321 102.07C58.4573 100.987 57.7737 100.009 56.9204 99.1906C56.067 98.3723 55.0607 97.7304 53.9591 97.3014C52.8574 96.8724 51.682 96.6649 50.5 96.6906C48.1136 96.6414 45.8054 97.5417 44.0826 99.1936C42.3598 100.846 41.3634 103.114 41.3125 105.5C41.3634 107.888 42.3595 110.157 44.082 111.811C45.8045 113.464 48.1127 114.367 50.5 114.32C51.6825 114.345 52.8581 114.136 53.9599 113.706C55.0616 113.276 56.0678 112.633 56.921 111.814C57.7742 110.995 58.4576 110.016 58.9323 108.932C59.407 107.849 59.6636 106.683 59.6875 105.5Z" fill="#24201F"/>
<path d="M48.7694 93.6433C48.738 93.8816 48.9205 94.0974 49.1609 94.0974H51.8753C52.0903 94.0974 52.2711 93.9232 52.2985 93.71C52.3126 93.6002 52.3258 93.4915 52.3258 93.3828C52.3258 89.4927 50.3094 86.1635 47.4884 84.8103C47.1549 84.6504 46.8671 85.0331 47.0573 85.3503C48.2499 87.3391 48.8854 89.6206 48.8855 91.9536C48.8819 92.5189 48.8431 93.0832 48.7694 93.6433Z" fill="#24201F"/>
<path d="M41.2199 95.4855C41.5538 95.9409 41.8549 96.4193 42.1207 96.9171C42.2352 97.1314 42.5132 97.2008 42.7092 97.0571L44.9331 95.4267C45.0875 95.3136 45.1378 95.1043 45.0413 94.939C44.9756 94.8264 44.9063 94.7159 44.8336 94.6076C42.5397 91.467 38.9631 89.9662 35.892 90.5249C35.5275 90.5912 35.5199 91.071 35.861 91.2156C37.9968 92.1204 39.8525 93.5941 41.2199 95.4855Z" fill="#24201F"/>
<path d="M37.1057 102.846C37.6445 103.022 38.1713 103.233 38.6828 103.477C38.9007 103.58 39.1634 103.472 39.2369 103.243L40.0691 100.636C40.1308 100.443 40.0353 100.23 39.852 100.143C39.7447 100.092 39.6375 100.043 39.5251 100.008C35.8163 98.814 32.018 99.7026 29.8729 101.969C29.6191 102.238 29.8948 102.628 30.2546 102.544C32.516 102.019 34.8856 102.12 37.1057 102.846Z" fill="#24201F"/>
<path d="M39.2014 107.694C39.1369 107.499 38.9311 107.383 38.7299 107.423C38.6158 107.446 38.5029 107.471 38.3925 107.511C34.696 108.722 32.1607 111.654 31.7427 114.751C31.6931 115.118 32.1471 115.274 32.3901 114.994C33.9107 113.245 35.8859 111.939 38.1067 111.227C38.6433 111.049 39.1918 110.91 39.7479 110.81C39.9873 110.767 40.1391 110.524 40.0626 110.293L39.2014 107.694Z" fill="#24201F"/>
<path d="M41.8834 114.238C39.6066 117.389 39.2798 121.264 40.7653 124.013C40.9412 124.338 41.3991 124.197 41.4312 123.828C41.632 121.518 42.4591 119.298 43.8332 117.413C44.1685 116.955 44.532 116.519 44.9215 116.107C45.0865 115.933 45.0654 115.651 44.8711 115.51L42.6787 113.918C42.4931 113.783 42.2251 113.834 42.0746 114.007C42.009 114.082 41.9435 114.157 41.8834 114.238Z" fill="#24201F"/>
<path d="M59.7684 115.514C59.4385 115.059 59.1408 114.581 58.8773 114.084C58.7632 113.869 58.4847 113.8 58.2884 113.944L56.0835 115.562C55.9171 115.684 55.8711 115.917 55.9714 116.098C56.0275 116.198 56.085 116.298 56.1546 116.392C58.4494 119.534 62.0276 121.043 65.1067 120.477C65.4712 120.41 65.4779 119.93 65.1365 119.786C62.9963 118.883 61.1369 117.409 59.7684 115.514Z" fill="#24201F"/>
<path d="M63.8813 108.154C63.3265 107.98 62.784 107.768 62.2574 107.522C62.0378 107.419 61.7748 107.53 61.7043 107.762L60.9118 110.367C60.8533 110.56 60.9491 110.769 61.1308 110.854C61.2411 110.906 61.3527 110.956 61.4721 110.992C65.1696 112.185 68.9483 111.299 71.105 109.035C71.3604 108.767 71.0845 108.375 70.7238 108.458C68.4649 108.981 66.0986 108.879 63.8813 108.154Z" fill="#24201F"/>
<path d="M61.7875 103.305C61.8517 103.5 62.0576 103.616 62.2596 103.579C62.3751 103.557 62.4906 103.534 62.6061 103.499C66.2507 102.287 68.83 99.3433 69.2478 96.2422C69.2972 95.8758 68.8448 95.7212 68.6023 96.0004C67.0822 97.7509 65.1101 99.0619 62.892 99.7834C62.351 99.9546 61.8002 100.093 61.2427 100.196C61.0061 100.241 60.8577 100.482 60.933 100.71L61.7875 103.305Z" fill="#24201F"/>
<path d="M59.1148 96.7617C61.392 93.6101 61.7186 89.7433 60.2324 86.9888C60.0566 86.663 59.5981 86.8036 59.5655 87.1723C59.3615 89.483 58.5315 91.7023 57.1548 93.5869C56.8226 94.0455 56.4602 94.4814 56.0702 94.8916C55.9039 95.0664 55.9246 95.3495 56.12 95.4909L58.3146 97.0793C58.5021 97.215 58.7749 97.1631 58.9271 96.9887C58.9918 96.9144 59.0567 96.8406 59.1148 96.7617Z" fill="#24201F"/>
<defs>
<clipPath id="clip0_17_3961">
<rect width="24.8276" height="24.8276" fill="white" transform="translate(275.725 164)"/>
</clipPath>
</defs>
</svg>
